<?xml version="1.0" standalone="no"?>
<svg viewBox="0 0 200 200" xmlns="http://www.w3.org/2000/svg">
  <path fill="#FF0066" d="M31.2,-58.1C37.9,-50.1,39.1,-36.7,46,-26.1C52.9,-15.5,65.5,-7.8,73.1,4.4C80.7,16.6,83.4,33.2,75.3,41.5C67.1,49.9,48,50,33.6,58.3C19.3,66.6,9.6,83.1,-3.5,89.2C-16.6,95.2,-33.3,90.9,-44.6,80.8C-55.9,70.7,-61.8,54.9,-61.9,40.5C-62,26.1,-56.4,13,-58.4,-1.2C-60.5,-15.4,-70.3,-30.8,-69.9,-44.8C-69.5,-58.7,-58.9,-71.2,-45.6,-75.4C-32.2,-79.6,-16.1,-75.5,-1.9,-72.1C12.2,-68.8,24.4,-66.1,31.2,-58.1Z" transform="translate(100 100)" />
</svg>
